<svg width="360" height="190" viewBox="0 0 360 190" fill="none" xmlns="http://www.w3.org/2000/svg">
<g clip-path="url(#clip0_1940_5958)">
<rect width="360" height="190" fill="#E3E5DE"/>
<g clip-path="url(#clip1_1940_5958)">
<g clip-path="url(#clip2_1940_5958)">
<mask id="mask0_1940_5958" style="mask-type:alpha" maskUnits="userSpaceOnUse" x="-16" y="3" width="582" height="263">
<rect x="-16" y="3.00195" width="581.704" height="262.373" fill="url(#paint0_linear_1940_5958)"/>
</mask>
<g mask="url(#mask0_1940_5958)">
<line y1="-0.151486" x2="584.431" y2="-0.151486" transform="matrix(-0.866025 0.5 -0.866025 -0.5 269.496 -162.117)" stroke="#E86800" stroke-opacity="0.79" stroke-width="0.302971"/>
<line y1="-0.151486" x2="584.431" y2="-0.151486" transform="matrix(-0.866025 0.5 -0.866025 -0.5 287.34 -151.816)" stroke="#E86800" stroke-opacity="0.79" stroke-width="0.302971"/>
<line y1="-0.151486" x2="584.431" y2="-0.151486" transform="matrix(-0.866025 0.5 -0.866025 -0.5 305.18 -141.516)" stroke="#E86800" stroke-opacity="0.79" stroke-width="0.302971"/>
<line y1="-0.151486" x2="584.431" y2="-0.151486" transform="matrix(-0.866025 0.5 -0.866025 -0.5 323.023 -131.214)" stroke="#E86800" stroke-opacity="0.79" stroke-width="0.302971"/>
<line y1="-0.151486" x2="584.431" y2="-0.151486" transform="matrix(-0.866025 0.5 -0.866025 -0.5 340.863 -120.913)" stroke="#E86800" stroke-opacity="0.79" stroke-width="0.302971"/>
<line y1="-0.151486" x2="584.431" y2="-0.151486" transform="matrix(-0.866025 0.5 -0.866025 -0.5 358.707 -110.612)" stroke="#E86800" stroke-opacity="0.79" stroke-width="0.302971"/>
<line y1="-0.151486" x2="584.431" y2="-0.151486" transform="matrix(-0.866025 0.5 -0.866025 -0.5 376.547 -100.312)" stroke="#E86800" stroke-opacity="0.79" stroke-width="0.302971"/>
<line y1="-0.151486" x2="584.431" y2="-0.151486" transform="matrix(-0.866025 0.5 -0.866025 -0.5 394.391 -90.0098)" stroke="#E86800" stroke-opacity="0.79" stroke-width="0.302971"/>
<line y1="-0.151486" x2="584.431" y2="-0.151486" transform="matrix(-0.866025 0.5 -0.866025 -0.5 412.23 -79.709)" stroke="#E86800" stroke-opacity="0.79" stroke-width="0.302971"/>
<line y1="-0.151486" x2="584.431" y2="-0.151486" transform="matrix(-0.866025 0.5 -0.866025 -0.5 430.074 -69.4082)" stroke="#E86800" stroke-opacity="0.79" stroke-width="0.302971"/>
<line y1="-0.151486" x2="584.431" y2="-0.151486" transform="matrix(-0.866025 0.5 -0.866025 -0.5 447.914 -59.1074)" stroke="#E86800" stroke-opacity="0.79" stroke-width="0.302971"/>
<line y1="-0.151486" x2="584.431" y2="-0.151486" transform="matrix(-0.866025 0.5 -0.866025 -0.5 465.758 -48.8057)" stroke="#E86800" stroke-opacity="0.79" stroke-width="0.302971"/>
<line y1="-0.151486" x2="584.431" y2="-0.151486" transform="matrix(-0.866025 0.5 -0.866025 -0.5 483.598 -38.5049)" stroke="#E86800" stroke-opacity="0.79" stroke-width="0.302971"/>
<line y1="-0.151486" x2="584.431" y2="-0.151486" transform="matrix(-0.866025 0.5 -0.866025 -0.5 501.441 -28.2041)" stroke="#E86800" stroke-opacity="0.79" stroke-width="0.302971"/>
<line y1="-0.151486" x2="584.431" y2="-0.151486" transform="matrix(-0.866025 0.5 -0.866025 -0.5 519.281 -17.9033)" stroke="#E86800" stroke-opacity="0.79" stroke-width="0.302971"/>
<line y1="-0.151486" x2="584.431" y2="-0.151486" transform="matrix(-0.866025 0.5 -0.866025 -0.5 537.125 -7.60156)" stroke="#E86800" stroke-opacity="0.79" stroke-width="0.302971"/>
<line y1="-0.151486" x2="584.431" y2="-0.151486" transform="matrix(-0.866025 0.5 -0.866025 -0.5 554.965 2.69922)" stroke="#E86800" stroke-opacity="0.79" stroke-width="0.302971"/>
<line y1="-0.151486" x2="584.431" y2="-0.151486" transform="matrix(-0.866025 0.5 -0.866025 -0.5 572.809 13)" stroke="#E86800" stroke-opacity="0.79" stroke-width="0.302971"/>
<line y1="-0.151486" x2="584.431" y2="-0.151486" transform="matrix(-0.866025 0.5 -0.866025 -0.5 590.648 23.3008)" stroke="#E86800" stroke-opacity="0.79" stroke-width="0.302971"/>
<line y1="-0.151486" x2="584.431" y2="-0.151486" transform="matrix(-0.866025 0.5 -0.866025 -0.5 608.492 33.6025)" stroke="#E86800" stroke-opacity="0.79" stroke-width="0.302971"/>
<line y1="-0.151486" x2="584.431" y2="-0.151486" transform="matrix(-0.866025 0.5 -0.866025 -0.5 626.332 43.9033)" stroke="#E86800" stroke-opacity="0.79" stroke-width="0.302971"/>
<line y1="-0.151486" x2="584.431" y2="-0.151486" transform="matrix(-0.866025 0.5 -0.866025 -0.5 644.176 54.2041)" stroke="#E86800" stroke-opacity="0.79" stroke-width="0.302971"/>
<line y1="-0.151486" x2="584.431" y2="-0.151486" transform="matrix(-0.866025 0.5 -0.866025 -0.5 662.016 64.5049)" stroke="#E86800" stroke-opacity="0.79" stroke-width="0.302971"/>
<line y1="-0.151486" x2="584.431" y2="-0.151486" transform="matrix(-0.866025 0.5 -0.866025 -0.5 679.859 74.8057)" stroke="#E86800" stroke-opacity="0.79" stroke-width="0.302971"/>
<line y1="-0.151486" x2="584.431" y2="-0.151486" transform="matrix(-0.866025 0.5 -0.866025 -0.5 697.699 85.1074)" stroke="#E86800" stroke-opacity="0.79" stroke-width="0.302971"/>
<line y1="-0.151486" x2="584.431" y2="-0.151486" transform="matrix(-0.866025 0.5 -0.866025 -0.5 715.543 95.4082)" stroke="#E86800" stroke-opacity="0.79" stroke-width="0.302971"/>
<line y1="-0.151486" x2="584.431" y2="-0.151486" transform="matrix(-0.866025 0.5 -0.866025 -0.5 733.387 105.709)" stroke="#E86800" stroke-opacity="0.79" stroke-width="0.302971"/>
<line y1="-0.151486" x2="584.431" y2="-0.151486" transform="matrix(-0.866025 0.5 -0.866025 -0.5 751.227 116.01)" stroke="#E86800" stroke-opacity="0.79" stroke-width="0.302971"/>
<line y1="-0.151486" x2="584.431" y2="-0.151486" transform="matrix(-0.866025 0.5 -0.866025 -0.5 769.07 126.312)" stroke="#E86800" stroke-opacity="0.79" stroke-width="0.302971"/>
<line y1="-0.151486" x2="584.431" y2="-0.151486" transform="matrix(-0.866025 0.5 -0.866025 -0.5 786.91 136.612)" stroke="#E86800" stroke-opacity="0.79" stroke-width="0.302971"/>
<line y1="-0.151486" x2="606.245" y2="-0.151486" transform="matrix(0.866025 0.5 -0.866025 0.5 -235.34 129.652)" stroke="#E86800" stroke-opacity="0.79" stroke-width="0.302971"/>
<line y1="-0.151486" x2="606.245" y2="-0.151486" transform="matrix(0.866025 0.5 -0.866025 0.5 -216.633 118.852)" stroke="#E86800" stroke-opacity="0.79" stroke-width="0.302971"/>
<line y1="-0.151486" x2="606.245" y2="-0.151486" transform="matrix(0.866025 0.5 -0.866025 0.5 -197.922 108.05)" stroke="#E86800" stroke-opacity="0.79" stroke-width="0.302971"/>
<line y1="-0.151486" x2="606.245" y2="-0.151486" transform="matrix(0.866025 0.5 -0.866025 0.5 -179.215 97.249)" stroke="#E86800" stroke-opacity="0.79" stroke-width="0.302971"/>
<line y1="-0.151486" x2="606.245" y2="-0.151486" transform="matrix(0.866025 0.5 -0.866025 0.5 -160.508 86.4482)" stroke="#E86800" stroke-opacity="0.79" stroke-width="0.302971"/>
<line y1="-0.151486" x2="606.245" y2="-0.151486" transform="matrix(0.866025 0.5 -0.866025 0.5 -141.801 75.6475)" stroke="#E86800" stroke-opacity="0.79" stroke-width="0.302971"/>
<line y1="-0.151486" x2="606.245" y2="-0.151486" transform="matrix(0.866025 0.5 -0.866025 0.5 -123.094 64.8457)" stroke="#E86800" stroke-opacity="0.79" stroke-width="0.302971"/>
<line y1="-0.151486" x2="606.245" y2="-0.151486" transform="matrix(0.866025 0.5 -0.866025 0.5 -104.383 54.0449)" stroke="#E86800" stroke-opacity="0.79" stroke-width="0.302971"/>
<line y1="-0.151486" x2="606.245" y2="-0.151486" transform="matrix(0.866025 0.5 -0.866025 0.5 -85.6758 43.2441)" stroke="#E86800" stroke-opacity="0.79" stroke-width="0.302971"/>
<line y1="-0.151486" x2="606.245" y2="-0.151486" transform="matrix(0.866025 0.5 -0.866025 0.5 -66.9688 32.4434)" stroke="#E86800" stroke-opacity="0.79" stroke-width="0.302971"/>
<line y1="-0.151486" x2="606.245" y2="-0.151486" transform="matrix(0.866025 0.5 -0.866025 0.5 -48.2617 21.6416)" stroke="#E86800" stroke-opacity="0.79" stroke-width="0.302971"/>
<line y1="-0.151486" x2="606.245" y2="-0.151486" transform="matrix(0.866025 0.5 -0.866025 0.5 -29.5508 10.8408)" stroke="#E86800" stroke-opacity="0.79" stroke-width="0.302971"/>
<line y1="-0.151486" x2="606.245" y2="-0.151486" transform="matrix(0.866025 0.5 -0.866025 0.5 -10.8438 0.0400391)" stroke="#E86800" stroke-opacity="0.79" stroke-width="0.302971"/>
<line y1="-0.151486" x2="606.245" y2="-0.151486" transform="matrix(0.866025 0.5 -0.866025 0.5 7.86328 -10.7607)" stroke="#E86800" stroke-opacity="0.79" stroke-width="0.302971"/>
<line y1="-0.151486" x2="606.245" y2="-0.151486" transform="matrix(0.866025 0.5 -0.866025 0.5 26.5703 -21.5625)" stroke="#E86800" stroke-opacity="0.79" stroke-width="0.302971"/>
<line y1="-0.151486" x2="606.245" y2="-0.151486" transform="matrix(0.866025 0.5 -0.866025 0.5 45.2773 -32.3633)" stroke="#E86800" stroke-opacity="0.79" stroke-width="0.302971"/>
<line y1="-0.151486" x2="606.245" y2="-0.151486" transform="matrix(0.866025 0.5 -0.866025 0.5 63.9883 -43.1641)" stroke="#E86800" stroke-opacity="0.79" stroke-width="0.302971"/>
<line y1="-0.151486" x2="606.245" y2="-0.151486" transform="matrix(0.866025 0.5 -0.866025 0.5 82.6953 -53.9648)" stroke="#E86800" stroke-opacity="0.79" stroke-width="0.302971"/>
<line y1="-0.151486" x2="606.245" y2="-0.151486" transform="matrix(0.866025 0.5 -0.866025 0.5 101.402 -64.7666)" stroke="#E86800" stroke-opacity="0.79" stroke-width="0.302971"/>
<line y1="-0.151486" x2="606.245" y2="-0.151486" transform="matrix(0.866025 0.5 -0.866025 0.5 120.109 -75.5674)" stroke="#E86800" stroke-opacity="0.79" stroke-width="0.302971"/>
<line y1="-0.151486" x2="606.245" y2="-0.151486" transform="matrix(0.866025 0.5 -0.866025 0.5 138.82 -86.3682)" stroke="#E86800" stroke-opacity="0.79" stroke-width="0.302971"/>
<line y1="-0.151486" x2="606.245" y2="-0.151486" transform="matrix(0.866025 0.5 -0.866025 0.5 157.527 -97.1689)" stroke="#E86800" stroke-opacity="0.79" stroke-width="0.302971"/>
<line y1="-0.151486" x2="606.245" y2="-0.151486" transform="matrix(0.866025 0.5 -0.866025 0.5 176.234 -107.971)" stroke="#E86800" stroke-opacity="0.79" stroke-width="0.302971"/>
<line y1="-0.151486" x2="606.245" y2="-0.151486" transform="matrix(0.866025 0.5 -0.866025 0.5 194.941 -118.771)" stroke="#E86800" stroke-opacity="0.79" stroke-width="0.302971"/>
<line y1="-0.151486" x2="606.245" y2="-0.151486" transform="matrix(0.866025 0.5 -0.866025 0.5 213.648 -129.572)" stroke="#E86800" stroke-opacity="0.79" stroke-width="0.302971"/>
<line y1="-0.151486" x2="606.245" y2="-0.151486" transform="matrix(0.866025 0.5 -0.866025 0.5 232.359 -140.373)" stroke="#E86800" stroke-opacity="0.79" stroke-width="0.302971"/>
<line y1="-0.151486" x2="606.245" y2="-0.151486" transform="matrix(0.866025 0.5 -0.866025 0.5 251.066 -151.175)" stroke="#E86800" stroke-opacity="0.79" stroke-width="0.302971"/>
<line y1="-0.151486" x2="606.245" y2="-0.151486" transform="matrix(0.866025 0.5 -0.866025 0.5 269.773 -161.976)" stroke="#E86800" stroke-opacity="0.79" stroke-width="0.302971"/>
<line y1="-0.151486" x2="606.245" y2="-0.151486" transform="matrix(0.866025 0.5 -0.866025 0.5 288.48 -172.776)" stroke="#E86800" stroke-opacity="0.79" stroke-width="0.302971"/>
</g>
</g>
</g>
<g filter="url(#filter0_d_1940_5958)">
<path d="M100.55 106V89.67H102.62V106H100.55ZM123.384 106H121.36V99.284C121.36 98.0267 121.153 97.099 120.739 96.501C120.34 95.903 119.742 95.604 118.945 95.604C118.132 95.604 117.396 95.903 116.737 96.501C116.078 97.0837 115.61 97.8427 115.334 98.778V106H113.31V99.284C113.31 98.0113 113.111 97.0837 112.712 96.501C112.313 95.903 111.715 95.604 110.918 95.604C110.121 95.604 109.385 95.8953 108.71 96.478C108.051 97.0453 107.583 97.8043 107.307 98.755V106H105.283V93.994H107.123V96.57C107.614 95.6807 108.25 94.9983 109.032 94.523C109.814 94.0323 110.696 93.787 111.677 93.787C112.674 93.787 113.471 94.063 114.069 94.615C114.667 95.1517 115.035 95.8493 115.173 96.708C115.71 95.7573 116.361 95.0367 117.128 94.546C117.895 94.04 118.769 93.787 119.75 93.787C120.44 93.787 121.015 93.9173 121.475 94.178C121.95 94.4233 122.326 94.776 122.602 95.236C122.878 95.6807 123.077 96.2097 123.2 96.823C123.323 97.4363 123.384 98.1033 123.384 98.824V106ZM132.074 106.23C131.093 106.23 130.219 105.985 129.452 105.494C128.685 105.003 128.08 104.382 127.635 103.631V110.899H125.611V93.994H127.405V96.248C127.88 95.512 128.501 94.9217 129.268 94.477C130.035 94.017 130.87 93.787 131.775 93.787C132.603 93.787 133.362 93.9557 134.052 94.293C134.742 94.6303 135.34 95.0903 135.846 95.673C136.352 96.2557 136.743 96.9227 137.019 97.674C137.31 98.41 137.456 99.1843 137.456 99.997C137.456 101.132 137.226 102.174 136.766 103.125C136.321 104.076 135.693 104.835 134.88 105.402C134.067 105.954 133.132 106.23 132.074 106.23ZM131.453 104.482C132.051 104.482 132.588 104.359 133.063 104.114C133.554 103.853 133.968 103.516 134.305 103.102C134.658 102.673 134.926 102.19 135.11 101.653C135.294 101.116 135.386 100.564 135.386 99.997C135.386 99.399 135.279 98.8317 135.064 98.295C134.865 97.7583 134.573 97.283 134.19 96.869C133.822 96.455 133.385 96.133 132.879 95.903C132.388 95.6577 131.852 95.535 131.269 95.535C130.901 95.535 130.518 95.604 130.119 95.742C129.736 95.88 129.368 96.0793 129.015 96.34C128.662 96.5853 128.363 96.869 128.118 97.191C127.873 97.513 127.712 97.858 127.635 98.226V101.653C127.865 102.174 128.172 102.65 128.555 103.079C128.938 103.508 129.383 103.853 129.889 104.114C130.395 104.359 130.916 104.482 131.453 104.482ZM139.067 89.21H141.091V102.895C141.091 103.554 141.183 103.961 141.367 104.114C141.551 104.267 141.773 104.344 142.034 104.344C142.356 104.344 142.663 104.313 142.954 104.252C143.245 104.175 143.491 104.099 143.69 104.022L144.012 105.678C143.675 105.816 143.276 105.931 142.816 106.023C142.356 106.115 141.95 106.161 141.597 106.161C140.815 106.161 140.194 105.939 139.734 105.494C139.289 105.049 139.067 104.428 139.067 103.631V89.21ZM149.995 106.23C149.09 106.23 148.262 106.069 147.511 105.747C146.775 105.41 146.131 104.957 145.579 104.39C145.042 103.807 144.621 103.14 144.314 102.389C144.023 101.638 143.877 100.84 143.877 99.997C143.877 98.8623 144.138 97.8273 144.659 96.892C145.18 95.9567 145.901 95.2053 146.821 94.638C147.756 94.0707 148.822 93.787 150.018 93.787C151.229 93.787 152.28 94.0783 153.169 94.661C154.074 95.2283 154.771 95.9797 155.262 96.915C155.768 97.835 156.021 98.8317 156.021 99.905C156.021 100.058 156.013 100.212 155.998 100.365C155.998 100.503 155.99 100.61 155.975 100.687H146.016C146.077 101.469 146.292 102.167 146.66 102.78C147.043 103.378 147.534 103.853 148.132 104.206C148.73 104.543 149.374 104.712 150.064 104.712C150.8 104.712 151.49 104.528 152.134 104.16C152.793 103.792 153.246 103.309 153.491 102.711L155.239 103.194C154.978 103.777 154.587 104.298 154.066 104.758C153.56 105.218 152.954 105.578 152.249 105.839C151.559 106.1 150.808 106.23 149.995 106.23ZM145.947 99.284H154.135C154.074 98.502 153.851 97.812 153.468 97.214C153.085 96.616 152.594 96.1483 151.996 95.811C151.398 95.4737 150.739 95.305 150.018 95.305C149.313 95.305 148.661 95.4737 148.063 95.811C147.465 96.1483 146.974 96.616 146.591 97.214C146.223 97.812 146.008 98.502 145.947 99.284ZM175.452 106H173.428V99.284C173.428 98.0267 173.221 97.099 172.807 96.501C172.408 95.903 171.81 95.604 171.013 95.604C170.2 95.604 169.464 95.903 168.805 96.501C168.146 97.0837 167.678 97.8427 167.402 98.778V106H165.378V99.284C165.378 98.0113 165.179 97.0837 164.78 96.501C164.381 95.903 163.783 95.604 162.986 95.604C162.189 95.604 161.453 95.8953 160.778 96.478C160.119 97.0453 159.651 97.8043 159.375 98.755V106H157.351V93.994H159.191V96.57C159.682 95.6807 160.318 94.9983 161.1 94.523C161.882 94.0323 162.764 93.787 163.745 93.787C164.742 93.787 165.539 94.063 166.137 94.615C166.735 95.1517 167.103 95.8493 167.241 96.708C167.778 95.7573 168.429 95.0367 169.196 94.546C169.963 94.04 170.837 93.787 171.818 93.787C172.508 93.787 173.083 93.9173 173.543 94.178C174.018 94.4233 174.394 94.776 174.67 95.236C174.946 95.6807 175.145 96.2097 175.268 96.823C175.391 97.4363 175.452 98.1033 175.452 98.824V106ZM182.992 106.23C182.087 106.23 181.259 106.069 180.508 105.747C179.772 105.41 179.128 104.957 178.576 104.39C178.039 103.807 177.618 103.14 177.311 102.389C177.02 101.638 176.874 100.84 176.874 99.997C176.874 98.8623 177.135 97.8273 177.656 96.892C178.177 95.9567 178.898 95.2053 179.818 94.638C180.753 94.0707 181.819 93.787 183.015 93.787C184.226 93.787 185.277 94.0783 186.166 94.661C187.071 95.2283 187.768 95.9797 188.259 96.915C188.765 97.835 189.018 98.8317 189.018 99.905C189.018 100.058 189.01 100.212 188.995 100.365C188.995 100.503 188.987 100.61 188.972 100.687H179.013C179.074 101.469 179.289 102.167 179.657 102.78C180.04 103.378 180.531 103.853 181.129 104.206C181.727 104.543 182.371 104.712 183.061 104.712C183.797 104.712 184.487 104.528 185.131 104.16C185.79 103.792 186.243 103.309 186.488 102.711L188.236 103.194C187.975 103.777 187.584 104.298 187.063 104.758C186.557 105.218 185.951 105.578 185.246 105.839C184.556 106.1 183.805 106.23 182.992 106.23ZM178.944 99.284H187.132C187.071 98.502 186.848 97.812 186.465 97.214C186.082 96.616 185.591 96.1483 184.993 95.811C184.395 95.4737 183.736 95.305 183.015 95.305C182.31 95.305 181.658 95.4737 181.06 95.811C180.462 96.1483 179.971 96.616 179.588 97.214C179.22 97.812 179.005 98.502 178.944 99.284ZM200.767 106H198.743V99.284C198.743 98.0113 198.544 97.0837 198.145 96.501C197.762 95.903 197.171 95.604 196.374 95.604C195.822 95.604 195.27 95.742 194.718 96.018C194.181 96.294 193.698 96.6697 193.269 97.145C192.855 97.605 192.556 98.1417 192.372 98.755V106H190.348V93.994H192.188V96.57C192.51 96.0027 192.924 95.512 193.43 95.098C193.936 94.684 194.511 94.362 195.155 94.132C195.799 93.902 196.474 93.787 197.179 93.787C197.869 93.787 198.444 93.9173 198.904 94.178C199.379 94.4233 199.747 94.776 200.008 95.236C200.284 95.6807 200.476 96.2097 200.583 96.823C200.706 97.4363 200.767 98.1033 200.767 98.824V106ZM209.092 105.402C208.923 105.479 208.693 105.578 208.402 105.701C208.111 105.824 207.773 105.931 207.39 106.023C207.007 106.115 206.6 106.161 206.171 106.161C205.68 106.161 205.228 106.077 204.814 105.908C204.4 105.724 204.07 105.448 203.825 105.08C203.58 104.697 203.457 104.221 203.457 103.654V95.581H201.824V93.994H203.457V89.992H205.481V93.994H208.172V95.581H205.481V103.033C205.512 103.462 205.657 103.784 205.918 103.999C206.179 104.198 206.485 104.298 206.838 104.298C207.237 104.298 207.605 104.229 207.942 104.091C208.279 103.953 208.502 103.853 208.609 103.792L209.092 105.402ZM210.048 106V93.994H212.072V106H210.048ZM210.048 91.74V89.21H212.072V91.74H210.048ZM224.848 106H222.824V99.284C222.824 98.0113 222.624 97.0837 222.226 96.501C221.842 95.903 221.252 95.604 220.455 95.604C219.903 95.604 219.351 95.742 218.799 96.018C218.262 96.294 217.779 96.6697 217.35 97.145C216.936 97.605 216.637 98.1417 216.453 98.755V106H214.429V93.994H216.269V96.57C216.591 96.0027 217.005 95.512 217.511 95.098C218.017 94.684 218.592 94.362 219.236 94.132C219.88 93.902 220.554 93.787 221.26 93.787C221.95 93.787 222.525 93.9173 222.985 94.178C223.46 94.4233 223.828 94.776 224.089 95.236C224.365 95.6807 224.556 96.2097 224.664 96.823C224.786 97.4363 224.848 98.1033 224.848 98.824V106ZM231.859 106.138C231.046 106.138 230.295 105.977 229.605 105.655C228.93 105.318 228.348 104.865 227.857 104.298C227.366 103.715 226.983 103.056 226.707 102.32C226.446 101.584 226.316 100.817 226.316 100.02C226.316 99.1767 226.446 98.3793 226.707 97.628C226.983 96.8767 227.366 96.2173 227.857 95.65C228.363 95.0673 228.953 94.615 229.628 94.293C230.303 93.9557 231.054 93.787 231.882 93.787C232.879 93.787 233.745 94.0323 234.481 94.523C235.232 95.0137 235.861 95.6347 236.367 96.386V93.994H238.161V105.862C238.161 106.997 237.885 107.955 237.333 108.737C236.796 109.519 236.06 110.109 235.125 110.508C234.205 110.922 233.178 111.129 232.043 111.129C230.694 111.129 229.59 110.891 228.731 110.416C227.872 109.941 227.159 109.297 226.592 108.484L227.765 107.449C228.24 108.154 228.854 108.683 229.605 109.036C230.372 109.389 231.184 109.565 232.043 109.565C232.779 109.565 233.454 109.427 234.067 109.151C234.696 108.89 235.194 108.484 235.562 107.932C235.945 107.38 236.137 106.69 236.137 105.862V103.746C235.692 104.482 235.079 105.065 234.297 105.494C233.53 105.923 232.718 106.138 231.859 106.138ZM232.48 104.482C232.909 104.482 233.323 104.405 233.722 104.252C234.121 104.099 234.489 103.899 234.826 103.654C235.163 103.393 235.447 103.102 235.677 102.78C235.907 102.458 236.06 102.128 236.137 101.791V98.341C235.922 97.789 235.616 97.306 235.217 96.892C234.818 96.4627 234.366 96.133 233.86 95.903C233.354 95.6577 232.833 95.535 232.296 95.535C231.683 95.535 231.131 95.6653 230.64 95.926C230.165 96.1867 229.758 96.5393 229.421 96.984C229.084 97.4133 228.823 97.8963 228.639 98.433C228.455 98.9697 228.363 99.514 228.363 100.066C228.363 100.664 228.47 101.231 228.685 101.768C228.9 102.289 229.191 102.757 229.559 103.171C229.927 103.585 230.364 103.907 230.87 104.137C231.376 104.367 231.913 104.482 232.48 104.482ZM244.462 102.527C244.462 101.76 244.677 101.101 245.106 100.549C245.551 99.9817 246.156 99.5447 246.923 99.238C247.69 98.9313 248.579 98.778 249.591 98.778C250.128 98.778 250.695 98.824 251.293 98.916C251.891 98.9927 252.42 99.1153 252.88 99.284V98.41C252.88 97.49 252.604 96.7693 252.052 96.248C251.5 95.7113 250.718 95.443 249.706 95.443C249.047 95.443 248.41 95.5657 247.797 95.811C247.199 96.041 246.563 96.3783 245.888 96.823L245.152 95.397C245.934 94.8603 246.716 94.4617 247.498 94.201C248.28 93.925 249.093 93.787 249.936 93.787C251.469 93.787 252.681 94.2163 253.57 95.075C254.459 95.9183 254.904 97.099 254.904 98.617V103.7C254.904 103.945 254.95 104.129 255.042 104.252C255.149 104.359 255.318 104.421 255.548 104.436V106C255.349 106.031 255.172 106.054 255.019 106.069C254.881 106.084 254.766 106.092 254.674 106.092C254.199 106.092 253.838 105.962 253.593 105.701C253.363 105.44 253.233 105.164 253.202 104.873L253.156 104.114C252.635 104.789 251.952 105.31 251.109 105.678C250.266 106.046 249.43 106.23 248.602 106.23C247.805 106.23 247.092 106.069 246.463 105.747C245.834 105.41 245.344 104.965 244.991 104.413C244.638 103.846 244.462 103.217 244.462 102.527ZM252.282 103.378C252.466 103.163 252.612 102.949 252.719 102.734C252.826 102.504 252.88 102.312 252.88 102.159V100.664C252.405 100.48 251.906 100.342 251.385 100.25C250.864 100.143 250.35 100.089 249.844 100.089C248.817 100.089 247.981 100.296 247.337 100.71C246.708 101.109 246.394 101.661 246.394 102.366C246.394 102.749 246.494 103.125 246.693 103.493C246.908 103.846 247.214 104.137 247.613 104.367C248.027 104.597 248.533 104.712 249.131 104.712C249.76 104.712 250.358 104.589 250.925 104.344C251.492 104.083 251.945 103.761 252.282 103.378ZM69.945 136V119.67H75.603C77.351 119.67 78.8077 120.038 79.973 120.774C81.1537 121.495 82.0353 122.476 82.618 123.718C83.2007 124.945 83.492 126.309 83.492 127.812C83.492 129.468 83.17 130.909 82.526 132.136C81.882 133.363 80.9697 134.313 79.789 134.988C78.6083 135.663 77.213 136 75.603 136H69.945ZM81.399 127.812C81.399 126.585 81.169 125.497 80.709 124.546C80.2643 123.595 79.6127 122.852 78.754 122.315C77.8953 121.778 76.845 121.51 75.603 121.51H72.015V134.16H75.603C76.8603 134.16 77.9183 133.884 78.777 133.332C79.6357 132.765 80.2873 132.006 80.732 131.055C81.1767 130.089 81.399 129.008 81.399 127.812ZM85.1669 136V123.994H87.1909V136H85.1669ZM85.1669 121.74V119.21H87.1909V121.74H85.1669ZM94.8606 136.23C93.956 136.23 93.128 136.069 92.3766 135.747C91.6406 135.41 90.9966 134.95 90.4446 134.367C89.908 133.784 89.4863 133.117 89.1796 132.366C88.8883 131.615 88.7426 130.817 88.7426 129.974C88.7426 128.839 88.9956 127.804 89.5016 126.869C90.0076 125.934 90.7206 125.19 91.6406 124.638C92.5606 124.071 93.6263 123.787 94.8376 123.787C96.0183 123.787 97.0456 124.055 97.9196 124.592C98.809 125.113 99.4683 125.819 99.8976 126.708L97.9196 127.329C97.613 126.762 97.1836 126.325 96.6316 126.018C96.0796 125.696 95.4663 125.535 94.7916 125.535C94.0556 125.535 93.381 125.727 92.7676 126.11C92.1696 126.493 91.6943 127.022 91.3416 127.697C90.989 128.356 90.8126 129.115 90.8126 129.974C90.8126 130.817 90.989 131.584 91.3416 132.274C91.7096 132.949 92.1926 133.485 92.7906 133.884C93.404 134.283 94.0786 134.482 94.8146 134.482C95.29 134.482 95.7423 134.398 96.1716 134.229C96.6163 134.06 96.9996 133.838 97.3216 133.562C97.659 133.271 97.889 132.956 98.0116 132.619L99.9896 133.217C99.7443 133.8 99.3686 134.321 98.8626 134.781C98.372 135.226 97.7816 135.578 97.0916 135.839C96.417 136.1 95.6733 136.23 94.8606 136.23ZM106.564 136.23C105.659 136.23 104.831 136.069 104.08 135.747C103.344 135.41 102.7 134.957 102.148 134.39C101.611 133.807 101.189 133.14 100.883 132.389C100.591 131.638 100.446 130.84 100.446 129.997C100.446 128.862 100.706 127.827 101.228 126.892C101.749 125.957 102.47 125.205 103.39 124.638C104.325 124.071 105.391 123.787 106.587 123.787C107.798 123.787 108.848 124.078 109.738 124.661C110.642 125.228 111.34 125.98 111.831 126.915C112.337 127.835 112.59 128.832 112.59 129.905C112.59 130.058 112.582 130.212 112.567 130.365C112.567 130.503 112.559 130.61 112.544 130.687H102.585C102.646 131.469 102.861 132.167 103.229 132.78C103.612 133.378 104.103 133.853 104.701 134.206C105.299 134.543 105.943 134.712 106.633 134.712C107.369 134.712 108.059 134.528 108.703 134.16C109.362 133.792 109.814 133.309 110.06 132.711L111.808 133.194C111.547 133.777 111.156 134.298 110.635 134.758C110.129 135.218 109.523 135.578 108.818 135.839C108.128 136.1 107.376 136.23 106.564 136.23ZM102.516 129.284H110.704C110.642 128.502 110.42 127.812 110.037 127.214C109.653 126.616 109.163 126.148 108.565 125.811C107.967 125.474 107.307 125.305 106.587 125.305C105.881 125.305 105.23 125.474 104.632 125.811C104.034 126.148 103.543 126.616 103.16 127.214C102.792 127.812 102.577 128.502 102.516 129.284ZM123.601 136.138C122.788 136.138 122.037 135.977 121.347 135.655C120.672 135.318 120.09 134.865 119.599 134.298C119.108 133.715 118.725 133.056 118.449 132.32C118.188 131.584 118.058 130.817 118.058 130.02C118.058 129.177 118.188 128.379 118.449 127.628C118.725 126.877 119.108 126.217 119.599 125.65C120.105 125.067 120.695 124.615 121.37 124.293C122.045 123.956 122.796 123.787 123.624 123.787C124.621 123.787 125.487 124.032 126.223 124.523C126.974 125.014 127.603 125.635 128.109 126.386V123.994H129.903V135.862C129.903 136.997 129.627 137.955 129.075 138.737C128.538 139.519 127.802 140.109 126.867 140.508C125.947 140.922 124.92 141.129 123.785 141.129C122.436 141.129 121.332 140.891 120.473 140.416C119.614 139.941 118.901 139.297 118.334 138.484L119.507 137.449C119.982 138.154 120.596 138.683 121.347 139.036C122.114 139.389 122.926 139.565 123.785 139.565C124.521 139.565 125.196 139.427 125.809 139.151C126.438 138.89 126.936 138.484 127.304 137.932C127.687 137.38 127.879 136.69 127.879 135.862V133.746C127.434 134.482 126.821 135.065 126.039 135.494C125.272 135.923 124.46 136.138 123.601 136.138ZM124.222 134.482C124.651 134.482 125.065 134.405 125.464 134.252C125.863 134.099 126.231 133.899 126.568 133.654C126.905 133.393 127.189 133.102 127.419 132.78C127.649 132.458 127.802 132.128 127.879 131.791V128.341C127.664 127.789 127.358 127.306 126.959 126.892C126.56 126.463 126.108 126.133 125.602 125.903C125.096 125.658 124.575 125.535 124.038 125.535C123.425 125.535 122.873 125.665 122.382 125.926C121.907 126.187 121.5 126.539 121.163 126.984C120.826 127.413 120.565 127.896 120.381 128.433C120.197 128.97 120.105 129.514 120.105 130.066C120.105 130.664 120.212 131.231 120.427 131.768C120.642 132.289 120.933 132.757 121.301 133.171C121.669 133.585 122.106 133.907 122.612 134.137C123.118 134.367 123.655 134.482 124.222 134.482ZM131.306 132.527C131.306 131.76 131.521 131.101 131.95 130.549C132.395 129.982 133.001 129.545 133.767 129.238C134.534 128.931 135.423 128.778 136.435 128.778C136.972 128.778 137.539 128.824 138.137 128.916C138.735 128.993 139.264 129.115 139.724 129.284V128.41C139.724 127.49 139.448 126.769 138.896 126.248C138.344 125.711 137.562 125.443 136.55 125.443C135.891 125.443 135.255 125.566 134.641 125.811C134.043 126.041 133.407 126.378 132.732 126.823L131.996 125.397C132.778 124.86 133.56 124.462 134.342 124.201C135.124 123.925 135.937 123.787 136.78 123.787C138.314 123.787 139.525 124.216 140.414 125.075C141.304 125.918 141.748 127.099 141.748 128.617V133.7C141.748 133.945 141.794 134.129 141.886 134.252C141.994 134.359 142.162 134.421 142.392 134.436V136C142.193 136.031 142.017 136.054 141.863 136.069C141.725 136.084 141.61 136.092 141.518 136.092C141.043 136.092 140.683 135.962 140.437 135.701C140.207 135.44 140.077 135.164 140.046 134.873L140 134.114C139.479 134.789 138.797 135.31 137.953 135.678C137.11 136.046 136.274 136.23 135.446 136.23C134.649 136.23 133.936 136.069 133.307 135.747C132.679 135.41 132.188 134.965 131.835 134.413C131.483 133.846 131.306 133.217 131.306 132.527ZM139.126 133.378C139.31 133.163 139.456 132.949 139.563 132.734C139.671 132.504 139.724 132.312 139.724 132.159V130.664C139.249 130.48 138.751 130.342 138.229 130.25C137.708 130.143 137.194 130.089 136.688 130.089C135.661 130.089 134.825 130.296 134.181 130.71C133.553 131.109 133.238 131.661 133.238 132.366C133.238 132.749 133.338 133.125 133.537 133.493C133.752 133.846 134.059 134.137 134.457 134.367C134.871 134.597 135.377 134.712 135.975 134.712C136.604 134.712 137.202 134.589 137.769 134.344C138.337 134.083 138.789 133.761 139.126 133.378ZM162.166 136H160.142V129.284C160.142 128.027 159.935 127.099 159.521 126.501C159.122 125.903 158.524 125.604 157.727 125.604C156.914 125.604 156.178 125.903 155.519 126.501C154.859 127.084 154.392 127.843 154.116 128.778V136H152.092V129.284C152.092 128.011 151.892 127.084 151.494 126.501C151.095 125.903 150.497 125.604 149.7 125.604C148.902 125.604 148.166 125.895 147.492 126.478C146.832 127.045 146.365 127.804 146.089 128.755V136H144.065V123.994H145.905V126.57C146.395 125.681 147.032 124.998 147.814 124.523C148.596 124.032 149.477 123.787 150.459 123.787C151.455 123.787 152.253 124.063 152.851 124.615C153.449 125.152 153.817 125.849 153.955 126.708C154.491 125.757 155.143 125.037 155.91 124.546C156.676 124.04 157.55 123.787 158.532 123.787C159.222 123.787 159.797 123.917 160.257 124.178C160.732 124.423 161.108 124.776 161.384 125.236C161.66 125.681 161.859 126.21 161.982 126.823C162.104 127.436 162.166 128.103 162.166 128.824V136ZM169.706 136.23C168.801 136.23 167.973 136.069 167.222 135.747C166.486 135.41 165.842 134.957 165.29 134.39C164.753 133.807 164.332 133.14 164.025 132.389C163.734 131.638 163.588 130.84 163.588 129.997C163.588 128.862 163.849 127.827 164.37 126.892C164.891 125.957 165.612 125.205 166.532 124.638C167.467 124.071 168.533 123.787 169.729 123.787C170.94 123.787 171.991 124.078 172.88 124.661C173.785 125.228 174.482 125.98 174.973 126.915C175.479 127.835 175.732 128.832 175.732 129.905C175.732 130.058 175.724 130.212 175.709 130.365C175.709 130.503 175.701 130.61 175.686 130.687H165.727C165.788 131.469 166.003 132.167 166.371 132.78C166.754 133.378 167.245 133.853 167.843 134.206C168.441 134.543 169.085 134.712 169.775 134.712C170.511 134.712 171.201 134.528 171.845 134.16C172.504 133.792 172.957 133.309 173.202 132.711L174.95 133.194C174.689 133.777 174.298 134.298 173.777 134.758C173.271 135.218 172.665 135.578 171.96 135.839C171.27 136.1 170.519 136.23 169.706 136.23ZM165.658 129.284H173.846C173.785 128.502 173.562 127.812 173.179 127.214C172.796 126.616 172.305 126.148 171.707 125.811C171.109 125.474 170.45 125.305 169.729 125.305C169.024 125.305 168.372 125.474 167.774 125.811C167.176 126.148 166.685 126.616 166.302 127.214C165.934 127.812 165.719 128.502 165.658 129.284ZM196.35 123.994H198.305L193.199 136H191.428L189.105 130.342L186.805 136H185.034L179.928 123.994H181.86L186 133.999L187.932 129.077L185.908 124.017H187.679L189.105 127.835L190.531 124.017H192.302L190.301 129.077L192.233 133.999L196.35 123.994ZM199.277 136V123.994H201.301V136H199.277ZM199.277 121.74V119.21H201.301V121.74H199.277ZM209.868 135.402C209.7 135.479 209.47 135.578 209.178 135.701C208.887 135.824 208.55 135.931 208.166 136.023C207.783 136.115 207.377 136.161 206.947 136.161C206.457 136.161 206.004 136.077 205.59 135.908C205.176 135.724 204.847 135.448 204.601 135.08C204.356 134.697 204.233 134.221 204.233 133.654V125.581H202.6V123.994H204.233V119.992H206.257V123.994H208.948V125.581H206.257V133.033C206.288 133.462 206.434 133.784 206.694 133.999C206.955 134.198 207.262 134.298 207.614 134.298C208.013 134.298 208.381 134.229 208.718 134.091C209.056 133.953 209.278 133.853 209.385 133.792L209.868 135.402ZM221.243 136H219.219V129.284C219.219 128.057 218.997 127.137 218.552 126.524C218.123 125.911 217.502 125.604 216.689 125.604C216.168 125.604 215.639 125.742 215.102 126.018C214.581 126.294 214.121 126.67 213.722 127.145C213.323 127.605 213.032 128.142 212.848 128.755V136H210.824V119.21H212.848V126.57C213.323 125.711 213.967 125.037 214.78 124.546C215.608 124.04 216.497 123.787 217.448 123.787C218.169 123.787 218.767 123.917 219.242 124.178C219.733 124.423 220.124 124.776 220.415 125.236C220.706 125.696 220.913 126.233 221.036 126.846C221.174 127.444 221.243 128.103 221.243 128.824V136Z" fill="#25291C"/>
<path d="M233.635 136.23C232.608 136.23 231.711 136.031 230.944 135.632C230.193 135.218 229.61 134.643 229.196 133.907C228.782 133.156 228.575 132.282 228.575 131.285V123.925C228.575 122.913 228.782 122.039 229.196 121.303C229.61 120.567 230.193 120 230.944 119.601C231.711 119.187 232.608 118.98 233.635 118.98C234.678 118.98 235.575 119.187 236.326 119.601C237.077 120 237.66 120.567 238.074 121.303C238.488 122.039 238.695 122.913 238.695 123.925V131.285C238.695 132.282 238.488 133.156 238.074 133.907C237.66 134.643 237.07 135.218 236.303 135.632C235.552 136.031 234.662 136.23 233.635 136.23ZM233.635 134.459C234.555 134.459 235.291 134.168 235.843 133.585C236.41 132.987 236.694 132.22 236.694 131.285V123.925C236.694 122.99 236.41 122.231 235.843 121.648C235.291 121.05 234.555 120.751 233.635 120.751C232.715 120.751 231.971 121.05 231.404 121.648C230.852 122.231 230.576 122.99 230.576 123.925V131.285C230.576 132.22 230.852 132.987 231.404 133.585C231.971 134.168 232.715 134.459 233.635 134.459ZM233.635 128.962C233.221 128.962 232.884 128.832 232.623 128.571C232.378 128.31 232.255 127.965 232.255 127.536C232.255 127.122 232.378 126.792 232.623 126.547C232.884 126.286 233.221 126.156 233.635 126.156C234.049 126.156 234.379 126.286 234.624 126.547C234.885 126.792 235.015 127.122 235.015 127.536C235.015 127.965 234.885 128.31 234.624 128.571C234.379 128.832 234.049 128.962 233.635 128.962ZM242.159 136V123.35H244.183V125.765H244.666L243.999 127.26C243.999 125.895 244.29 124.868 244.873 124.178C245.471 123.473 246.353 123.12 247.518 123.12C248.852 123.12 249.91 123.542 250.692 124.385C251.489 125.213 251.888 126.34 251.888 127.766V128.525H249.818V127.95C249.818 126.953 249.573 126.194 249.082 125.673C248.607 125.136 247.924 124.868 247.035 124.868C246.161 124.868 245.471 125.136 244.965 125.673C244.474 126.21 244.229 126.969 244.229 127.95V136H242.159ZM260.113 136.23C259.07 136.23 258.235 135.954 257.606 135.402C256.977 134.835 256.663 134.068 256.663 133.102L257.077 133.585H256.663V136H254.593V119.21H256.663V122.89L256.617 125.765H257.077L256.663 126.248C256.663 125.297 256.977 124.538 257.606 123.971C258.25 123.404 259.086 123.12 260.113 123.12C261.386 123.12 262.405 123.542 263.172 124.385C263.939 125.228 264.322 126.378 264.322 127.835V131.538C264.322 132.979 263.939 134.122 263.172 134.965C262.405 135.808 261.386 136.23 260.113 136.23ZM259.423 134.436C260.297 134.436 260.987 134.175 261.493 133.654C261.999 133.133 262.252 132.381 262.252 131.4V127.95C262.252 126.969 261.999 126.217 261.493 125.696C260.987 125.175 260.297 124.914 259.423 124.914C258.58 124.914 257.905 125.182 257.399 125.719C256.908 126.256 256.663 126.999 256.663 127.95V131.4C256.663 132.351 256.908 133.094 257.399 133.631C257.905 134.168 258.58 134.436 259.423 134.436ZM267.303 136V134.114H271.788V125.236H267.878V123.35H273.858V134.114H278.113V136H267.303ZM272.593 121.073C272.087 121.073 271.688 120.943 271.397 120.682C271.106 120.421 270.96 120.069 270.96 119.624C270.96 119.164 271.106 118.804 271.397 118.543C271.688 118.267 272.087 118.129 272.593 118.129C273.099 118.129 273.498 118.267 273.789 118.543C274.08 118.804 274.226 119.164 274.226 119.624C274.226 120.069 274.08 120.421 273.789 120.682C273.498 120.943 273.099 121.073 272.593 121.073ZM286.499 136C285.41 136 284.559 135.709 283.946 135.126C283.348 134.543 283.049 133.723 283.049 132.665V125.236H279.484V123.35H283.049V119.785H285.119V123.35H290.179V125.236H285.119V132.665C285.119 133.631 285.579 134.114 286.499 134.114H289.949V136H286.499Z" fill="#D16D1B"/>
</g>
<path d="M163.532 63.5125L163.532 54.2254C163.532 49.6179 159.684 45.8829 154.938 45.8828C150.449 45.8828 146.688 49.2865 146.647 53.6435C146.646 53.846 146.645 54.0437 146.645 54.2352" stroke="#EB8F44" stroke-width="1.99854"/>
<path d="M146.618 58.957C147.23 58.9602 147.728 58.4819 147.731 57.8886C147.735 57.2953 147.242 56.8118 146.63 56.8086C146.019 56.8053 145.521 57.2837 145.517 57.8769C145.514 58.4702 146.007 58.9538 146.618 58.957Z" fill="#EB8F44"/>
<path d="M150.224 58.9658C150.835 58.969 151.334 58.4907 151.337 57.8974C151.34 57.3041 150.847 56.8206 150.236 56.8174C149.625 56.8141 149.126 57.2925 149.123 57.8857C149.119 58.479 149.612 58.9626 150.224 58.9658Z" fill="#25291C"/>
<path d="M146.114 63.7002L146.071 69.4724C146.035 74.1181 149.871 77.9194 154.656 77.9818C159.408 78.0443 163.333 74.3963 163.475 69.7859L163.503 68.8774" stroke="#25291C" stroke-width="1.99854"/>
<path d="M159.618 61.0657L159.606 69.2184C159.602 71.7716 157.45 73.8299 154.82 73.7954C152.224 73.7614 150.143 71.6989 150.163 69.1785L150.212 62.8488C150.225 61.2052 148.286 60.2647 146.939 61.261C146.434 61.6352 146.137 62.2171 146.137 62.8343V63.8542" stroke="#25291C" stroke-width="1.99854"/>
<path d="M154.915 50.0548L154.898 49.0833L154.915 49.083L154.931 49.0833L154.915 50.0548ZM151.279 57.6662C151.279 58.2028 150.831 58.6379 150.278 58.6379C149.726 58.6379 149.277 58.2028 149.277 57.6662H151.279ZM154.931 51.0263L154.653 51.0308L154.62 49.0877L154.898 49.0833L154.931 51.0263ZM151.279 54.3604V57.6662H149.277V54.3604H151.279ZM158.62 61.229V55.9301H160.622V61.229H158.62ZM158.62 55.9301V54.698H160.622V55.9301H158.62ZM149.277 54.3604C149.277 51.4819 151.655 49.1352 154.62 49.0877L154.653 51.0308C152.781 51.0608 151.279 52.5427 151.279 54.3604H149.277ZM154.931 49.0833C158.089 49.1331 160.622 51.6322 160.622 54.698H158.62C158.62 52.6932 156.964 51.0589 154.899 51.0263L154.931 49.0833Z" fill="#25291C"/>
<path d="M163.517 70.0595C164.264 70.0634 164.873 69.4804 164.877 68.7572C164.882 68.0341 164.279 67.4447 163.532 67.4407C162.785 67.4368 162.176 68.0198 162.172 68.743C162.168 69.4661 162.77 70.0555 163.517 70.0595Z" fill="#25291C"/>
<path d="M163.62 64.9521C164.357 64.9521 164.955 64.2996 164.955 63.4946C164.955 62.6897 164.357 62.0371 163.62 62.0371C162.883 62.0371 162.285 62.6897 162.285 63.4946C162.285 64.2996 162.883 64.9521 163.62 64.9521Z" fill="#EB8F44"/>
<path d="M146.608 55.2356C147.345 55.2356 147.943 54.6556 147.943 53.9401C147.943 53.2246 147.345 52.6445 146.608 52.6445C145.871 52.6445 145.273 53.2246 145.273 53.9401C145.273 54.6556 145.871 55.2356 146.608 55.2356Z" fill="#EB8F44"/>
<path d="M169.872 69.1755C169.935 68.0269 170.246 67 170.805 66.0948C171.383 65.1897 172.122 64.4801 173.022 63.9658C173.941 63.4517 174.955 63.1975 176.062 63.2032C176.94 63.2077 177.617 63.3317 178.093 63.575C178.569 63.8184 178.748 64.1714 178.631 64.6341C178.554 64.9117 178.419 65.0963 178.227 65.188C178.055 65.2798 177.835 65.3157 177.568 65.2958C177.32 65.2759 177.034 65.256 176.709 65.2358C175.64 65.1376 174.686 65.2439 173.844 65.5545C173.021 65.8468 172.36 66.3067 171.86 66.9342C171.38 67.5618 171.137 68.3111 171.132 69.182L169.872 69.1755ZM169.993 78.5439C169.649 78.5421 169.382 78.4483 169.192 78.2618C169.002 78.0758 168.908 77.8156 168.91 77.4819L168.982 64.3898C168.984 64.0562 169.081 63.7972 169.272 63.6129C169.464 63.4286 169.732 63.3373 170.076 63.3391C170.42 63.3409 170.686 63.4349 170.876 63.6212C171.066 63.8075 171.16 64.0674 171.158 64.401L171.086 77.4931C171.085 77.8268 170.988 78.0857 170.796 78.27C170.604 78.4543 170.336 78.5456 169.993 78.5439ZM188.234 78.7768C186.744 78.7695 185.4 78.4289 184.201 77.7553C183.021 77.0822 182.081 76.1693 181.381 75.0169C180.7 73.8459 180.354 72.5376 180.343 71.092L180.415 57.9719C180.417 57.6383 180.514 57.3794 180.706 57.1951C180.916 56.9923 181.194 56.8918 181.538 56.8936C181.862 56.8953 182.119 56.9985 182.309 57.2033C182.518 57.3897 182.622 57.6497 182.62 57.9833L182.575 66.1555C183.21 65.2878 184.044 64.5972 185.078 64.0836C186.131 63.5516 187.297 63.2889 188.576 63.2955C190.046 63.3031 191.361 63.6527 192.522 64.3444C193.683 65.0176 194.594 65.9396 195.256 67.1105C195.937 68.2815 196.274 69.599 196.266 71.0629C196.258 72.5454 195.897 73.8688 195.184 75.0324C194.491 76.1964 193.541 77.118 192.334 77.7976C191.128 78.4586 189.761 78.785 188.234 78.7768ZM188.244 76.8312C189.351 76.8368 190.345 76.5917 191.227 76.0961C192.108 75.5819 192.798 74.8903 193.3 74.0221C193.82 73.1539 194.083 72.1634 194.089 71.0517C194.095 69.9584 193.843 68.9749 193.332 68.1013C192.841 67.2092 192.157 66.5107 191.282 66.0059C190.406 65.501 189.415 65.2457 188.308 65.24C187.219 65.2344 186.235 65.4795 185.354 65.9753C184.473 66.4711 183.782 67.1625 183.281 68.0494C182.779 68.9178 182.526 69.8987 182.52 70.992C182.514 72.104 182.757 73.0966 183.248 73.97C183.74 74.8437 184.424 75.5423 185.299 76.0655C186.174 76.5702 187.156 76.8256 188.244 76.8312ZM200.406 78.7011C200.062 78.6989 199.786 78.605 199.577 78.4185C199.387 78.2136 199.293 77.9444 199.295 77.6111L199.366 64.5743C199.368 64.2408 199.465 63.9818 199.657 63.7974C199.868 63.5947 200.145 63.4942 200.489 63.496C200.814 63.4977 201.071 63.6009 201.26 63.8058C201.469 63.9921 201.573 64.2521 201.571 64.5857L201.5 77.6223C201.498 77.956 201.392 78.2243 201.18 78.4267C200.988 78.611 200.73 78.7023 200.406 78.7011ZM200.476 60.605C200.056 60.6028 199.694 60.4527 199.39 60.1546C199.086 59.8565 198.936 59.4944 198.938 59.0682C198.941 58.6049 199.095 58.2443 199.402 57.9865C199.728 57.7102 200.102 57.5731 200.521 57.5752C200.922 57.5773 201.275 57.7181 201.578 57.9977C201.902 58.2588 202.062 58.621 202.059 59.0843C202.057 59.5105 201.902 59.8711 201.595 60.166C201.288 60.4609 200.915 60.6072 200.476 60.605ZM211.519 78.7583C210.507 78.7532 209.601 78.5167 208.802 78.0491C208.022 77.5818 207.405 76.9487 206.951 76.1495C206.497 75.3317 206.273 74.4041 206.279 73.3662L206.353 59.7736C206.355 59.4585 206.452 59.1996 206.644 58.9967C206.855 58.794 207.123 58.6934 207.447 58.6951C207.772 58.6968 208.039 58.8001 208.248 59.005C208.456 59.2099 208.56 59.4699 208.558 59.7849L208.484 73.3774C208.479 74.3227 208.761 75.1026 209.33 75.7171C209.9 76.3131 210.633 76.6133 211.53 76.618L212.303 76.6219C212.609 76.6232 212.857 76.7265 213.046 76.9315C213.236 77.1361 213.33 77.3962 213.328 77.711C213.327 78.0262 213.211 78.285 212.98 78.4879C212.751 78.6718 212.464 78.7631 212.12 78.7613L211.519 78.7583ZM204.458 65.9349C204.172 65.9334 203.933 65.8487 203.744 65.681C203.554 65.4947 203.46 65.2718 203.461 65.0124C203.462 64.7344 203.559 64.5125 203.751 64.3467C203.943 64.1624 204.182 64.071 204.468 64.0725L211.771 64.1101C212.057 64.1116 212.295 64.2055 212.485 64.3918C212.675 64.5596 212.769 64.7824 212.768 65.0604C212.766 65.3198 212.669 65.5417 212.478 65.7261C212.286 65.8919 212.047 65.974 211.76 65.9725L204.458 65.9349Z" fill="#25291C"/>
<path d="M200.728 60.867C201.708 60.867 202.502 60.0958 202.502 59.1445C202.502 58.1931 201.708 57.4219 200.728 57.4219C199.748 57.4219 198.953 58.1931 198.953 59.1445C198.953 60.0958 199.748 60.867 200.728 60.867Z" fill="#EB8F44"/>
</g>
<defs>
<filter id="filter0_d_1940_5958" x="68.8163" y="86.8874" width="225.834" height="57.5189" filterUnits="userSpaceOnUse" color-interpolation-filters="sRGB">
<feFlood flood-opacity="0" result="BackgroundImageFix"/>
<feColorMatrix in="SourceAlpha" type="matrix" values="0 0 0 0 0 0 0 0 0 0 0 0 0 0 0 0 0 0 127 0" result="hardAlpha"/>
<feOffset dx="1.67104" dy="0.477439"/>
<feGaussianBlur stdDeviation="1.4"/>
<feComposite in2="hardAlpha" operator="out"/>
<feColorMatrix type="matrix" values="0 0 0 0 0.145098 0 0 0 0 0.160784 0 0 0 0 0.109804 0 0 0 0.25 0"/>
<feBlend mode="normal" in2="BackgroundImageFix" result="effect1_dropShadow_1940_5958"/>
<feBlend mode="normal" in="SourceGraphic" in2="effect1_dropShadow_1940_5958" result="shape"/>
</filter>
<linearGradient id="paint0_linear_1940_5958" x1="274.852" y1="3.00195" x2="274.852" y2="265.375" gradientUnits="userSpaceOnUse">
<stop stop-color="#C4C4C4" stop-opacity="0"/>
<stop offset="0.526042" stop-color="#C4C4C4"/>
<stop offset="1" stop-color="#C4C4C4" stop-opacity="0"/>
</linearGradient>
<clipPath id="clip0_1940_5958">
<rect width="360" height="190" fill="white"/>
</clipPath>
<clipPath id="clip1_1940_5958">
<rect width="409" height="187.458" fill="white" transform="translate(-16 3)"/>
</clipPath>
<clipPath id="clip2_1940_5958">
<rect width="581.704" height="262.979" fill="white" transform="translate(-16 3)"/>
</clipPath>
</defs>
</svg>
