<svg width="244" height="62" viewBox="0 0 244 62" fill="none" xmlns="http://www.w3.org/2000/svg">
<path fill-rule="evenodd" clip-rule="evenodd" d="M44.9842 12.8847L41.8118 7.3901C37.4498 -0.165198 26.5446 -0.165184 22.1826 7.3901L1.53523 43.1524C-2.58216 50.2839 2.04499 59.0984 9.91396 60.0649C10.2954 60.0528 10.6755 60.0467 11.0537 60.0467C22.8748 60.0467 34.698 35.1555 44.9842 12.8847ZM53.8212 60.0936C51.3544 60.1092 48.7555 60.1178 46.0229 60.1178C36.3485 60.1178 35.5336 48.6467 38.2836 38.6959C39.5471 34.1241 43.3498 25.0306 47.0918 16.5353L62.459 43.1524C66.6216 50.3619 61.8474 59.2915 53.8212 60.0936Z" fill="url(#paint0_linear_1375_816)"/>
<path d="M111.958 53.9423L111.52 48.3139C110.204 50.2632 108.426 51.8225 106.184 52.992C103.991 54.1127 101.384 54.6733 98.3626 54.6733C95.8772 54.6733 93.5627 54.2347 91.4186 53.3575C89.323 52.4314 87.4955 51.1646 85.9362 49.5566C84.4258 47.9484 83.2315 46.048 82.3543 43.8551C81.4772 41.6622 81.0391 39.2744 81.0391 36.6917C81.0391 34.0603 81.4772 31.6724 82.3543 29.5283C83.2315 27.3354 84.4258 25.4593 85.9362 23.8999C87.4955 22.3405 89.323 21.1223 91.4186 20.2451C93.5627 19.368 95.8772 18.9294 98.3626 18.9294C101.384 18.9294 103.991 19.5142 106.184 20.6837C108.426 21.8045 110.204 23.3151 111.52 25.2157L111.812 19.6604H117.367V53.9423H111.958ZM98.9473 49.4835C100.799 49.4835 102.48 49.1424 103.991 48.4601C105.55 47.7779 106.89 46.8764 108.011 45.7556C109.132 44.586 110.009 43.2216 110.643 41.6622C111.276 40.1028 111.593 38.446 111.593 36.6917C111.593 34.9374 111.276 33.3049 110.643 31.7943C110.009 30.2349 109.132 28.8948 108.011 27.774C106.89 26.6532 105.55 25.7761 103.991 25.1426C102.48 24.4603 100.799 24.1192 98.9473 24.1192C97.193 24.1192 95.5606 24.4603 94.0497 25.1426C92.5877 25.7761 91.3208 26.6532 90.2491 27.774C89.1768 28.8948 88.3485 30.2349 87.7637 31.7943C87.1789 33.3049 86.8865 34.9374 86.8865 36.6917C86.8865 38.446 87.1789 40.1028 87.7637 41.6622C88.3485 43.2216 89.1768 44.586 90.2491 45.7556C91.3208 46.8764 92.5877 47.7779 94.0497 48.4601C95.5606 49.1424 97.193 49.4835 98.9473 49.4835ZM123.727 42.9049H129.209C129.307 43.9769 129.623 44.9272 130.159 45.7556C130.744 46.584 131.426 47.2906 132.206 47.8753C133.034 48.4114 133.96 48.8256 134.984 49.118C136.007 49.4104 137.055 49.5566 138.126 49.5566C139.101 49.5566 140.052 49.4347 140.977 49.1911C141.952 48.9474 142.805 48.6063 143.536 48.1677C144.267 47.7292 144.852 47.1932 145.29 46.5597C145.729 45.9262 145.948 45.1708 145.948 44.2937C145.948 43.3191 145.704 42.515 145.217 41.8815C144.73 41.248 144.048 40.7363 143.17 40.3465C142.342 39.9079 141.343 39.5668 140.173 39.3231C139.053 39.0795 137.834 38.8359 136.519 38.5922C135.154 38.3486 133.741 38.0562 132.279 37.7151C130.817 37.3739 129.501 36.8866 128.332 36.2531C127.211 35.5709 126.285 34.6938 125.554 33.6217C124.823 32.5009 124.458 31.0389 124.458 29.2359C124.458 27.5303 124.823 26.0441 125.554 24.7771C126.334 23.5101 127.333 22.438 128.551 21.5609C129.818 20.6837 131.231 20.0502 132.791 19.6604C134.399 19.2218 136.031 19.0025 137.688 19.0025C139.394 19.0025 141.026 19.2461 142.586 19.7335C144.194 20.172 145.607 20.8543 146.825 21.7802C148.092 22.6573 149.116 23.8025 149.895 25.2157C150.724 26.5801 151.162 28.1638 151.211 29.9669H145.729C145.631 29.041 145.339 28.2126 144.852 27.4816C144.364 26.7019 143.731 26.0685 142.951 25.5811C142.171 25.0938 141.319 24.7284 140.393 24.4847C139.467 24.1923 138.492 24.0461 137.469 24.0461C136.543 24.0461 135.642 24.1679 134.764 24.4116C133.887 24.6065 133.107 24.8989 132.425 25.2888C131.743 25.6786 131.183 26.1659 130.744 26.7506C130.354 27.3354 130.159 28.0177 130.159 28.7974C130.159 29.5283 130.33 30.1375 130.671 30.6247C131.012 31.112 131.524 31.5506 132.206 31.9405C132.888 32.3303 133.716 32.6471 134.691 32.8907C135.715 33.1344 136.86 33.378 138.126 33.6217C139.686 33.9141 141.27 34.2308 142.878 34.5719C144.535 34.913 146.021 35.4247 147.337 36.1069C148.701 36.7892 149.798 37.7394 150.626 38.9577C151.503 40.1272 151.942 41.711 151.942 43.7089C151.942 45.4632 151.528 47.0226 150.699 48.387C149.871 49.7515 148.798 50.9211 147.483 51.8956C146.167 52.8216 144.632 53.5279 142.878 54.0154C141.172 54.5029 139.418 54.7464 137.615 54.7464C135.812 54.7464 134.082 54.4782 132.425 53.9423C130.768 53.4064 129.282 52.6507 127.966 51.6763C126.699 50.6529 125.676 49.4104 124.897 47.9484C124.117 46.4866 123.727 44.8053 123.727 42.9049ZM154.315 24.5578V19.6604H160.821V9.79244L166.522 8.5498V19.6604H178.144V24.5578H166.595V42.5394C166.595 45.0734 167.302 46.852 168.715 47.8753C170.128 48.8987 171.98 49.4104 174.27 49.4104C174.758 49.4104 175.245 49.386 175.732 49.3373C176.22 49.2886 176.731 49.1911 177.267 49.0449V54.2347C176.585 54.3809 175.854 54.4782 175.074 54.5271C174.343 54.6244 173.661 54.6733 173.028 54.6733C171.176 54.6733 169.495 54.4298 167.984 53.9423C166.522 53.4548 165.255 52.7238 164.183 51.7494C163.111 50.7749 162.258 49.5322 161.625 48.0215C161.04 46.5109 160.747 44.7322 160.747 42.6856V24.5578H154.315ZM189.459 53.9423H183.611V19.6604H188.874L189.313 26.5314C190.19 24.1436 191.652 22.2918 193.698 20.9761C195.745 19.6116 198.133 18.9294 200.862 18.9294C201.349 18.9294 201.812 18.9538 202.251 19.0025C202.689 19.0512 203.055 19.1243 203.347 19.2218V24.4847C203.104 24.436 202.811 24.3872 202.47 24.3385C202.177 24.2898 201.885 24.2654 201.593 24.2654C199.741 24.2654 198.06 24.5822 196.549 25.2157C195.087 25.8492 193.82 26.7263 192.748 27.8471C191.676 28.9679 190.848 30.308 190.263 31.8674C189.727 33.4268 189.459 35.1567 189.459 37.0572V53.9423ZM203.738 36.8379C203.738 34.3039 204.201 31.9648 205.127 29.8207C206.053 27.6278 207.32 25.7273 208.928 24.1192C210.536 22.5111 212.437 21.2441 214.63 20.3182C216.871 19.3923 219.307 18.9294 221.939 18.9294C224.571 18.9294 226.983 19.3923 229.176 20.3182C231.417 21.2441 233.342 22.5111 234.95 24.1192C236.558 25.7273 237.825 27.6278 238.751 29.8207C239.677 31.9648 240.14 34.3039 240.14 36.8379C240.14 39.3231 239.677 41.6622 238.751 43.8551C237.825 45.9992 236.558 47.8754 234.95 49.4835C233.342 51.0915 231.417 52.3583 229.176 53.2844C226.983 54.2105 224.571 54.6733 221.939 54.6733C219.307 54.6733 216.871 54.2105 214.63 53.2844C212.437 52.3583 210.536 51.0915 208.928 49.4835C207.32 47.8754 206.053 45.9992 205.127 43.8551C204.201 41.6622 203.738 39.3231 203.738 36.8379ZM221.939 49.2642C223.742 49.2642 225.399 48.9474 226.91 48.3139C228.42 47.6317 229.712 46.7546 230.783 45.6825C231.905 44.5617 232.757 43.246 233.342 41.7353C233.976 40.2247 234.292 38.5922 234.292 36.8379C234.292 35.0836 233.976 33.4511 233.342 31.9405C232.757 30.3811 231.905 29.0654 230.783 27.9933C229.712 26.8725 228.42 25.9954 226.91 25.3619C225.399 24.6796 223.742 24.3385 221.939 24.3385C220.136 24.3385 218.479 24.6796 216.969 25.3619C215.458 25.9954 214.142 26.8725 213.021 27.9933C211.949 29.0654 211.097 30.3811 210.463 31.9405C209.878 33.4511 209.586 35.0836 209.586 36.8379C209.586 38.5922 209.878 40.2247 210.463 41.7353C211.097 43.246 211.949 44.5617 213.021 45.6825C214.142 46.7546 215.458 47.6317 216.969 48.3139C218.479 48.9474 220.136 49.2642 221.939 49.2642Z" fill="#131C25"/>
<defs>
<linearGradient id="paint0_linear_1375_816" x1="46.9902" y1="1.78626" x2="10.6419" y2="60.1092" gradientUnits="userSpaceOnUse">
<stop stop-color="#CBC9C9"/>
<stop offset="0.21" stop-color="#797979"/>
<stop offset="1"/>
</linearGradient>
</defs>
</svg>
