<svg width="265" height="47" viewBox="0 0 265 47" fill="none" xmlns="http://www.w3.org/2000/svg">
<g clip-path="url(#clip0_1370_1350)">
<path d="M248.984 15.4893C243.08 15.4893 239.17 18.6914 238.283 25.1699H258.948C258.505 18.9892 255.332 15.4893 248.984 15.4893ZM249.28 46.3928C238.653 46.3928 231.715 39.8398 231.715 28.4464C231.715 16.8296 238.726 9.9043 249.207 9.9043C259.465 9.9043 264.999 16.5318 264.999 26.0635C264.999 27.1806 264.999 28.5954 264.852 30.2336H238.136C238.8 37.0101 242.712 40.7334 249.28 40.7334C255.479 40.7334 257.914 37.5314 259.095 33.4357L264.779 35.1484C263.007 41.9992 258.061 46.3928 249.28 46.3928Z" fill="black"/>
<path d="M181.21 24.9465V45.5737H174.789V10.7979H181.21V20.1806H181.284C182.759 13.1063 187.262 9.9043 193.313 9.9043C201.209 9.9043 204.531 14.5212 205.195 20.7764H205.269C206.523 13.3298 210.582 9.9043 217.298 9.9043C226.375 9.9043 229.474 15.8616 229.474 23.3083V45.5737H223.055V24.9465C223.055 20.1806 221.061 15.7871 214.789 15.7871C208.885 15.7871 205.342 19.1381 205.342 24.9465V45.5737H198.921V24.9465C198.921 20.1806 196.929 15.7871 190.655 15.7871C184.753 15.7871 181.21 19.1381 181.21 24.9465Z" fill="black"/>
<path d="M130.276 24.7976C129.021 19.287 125.995 15.8616 119.943 15.8616C113.449 15.8616 108.947 19.9573 108.947 28.2231C108.947 35.9676 113.301 40.51 120.165 40.51C126.881 40.51 129.095 36.4143 130.423 31.1272L136.549 32.3931C134.999 41.1802 129.98 46.4673 120.239 46.4673C109.464 46.4673 102.379 39.8398 102.379 28.1486C102.379 16.6807 109.759 9.9043 120.017 9.9043C130.054 9.9043 134.925 14.968 136.475 23.6805L130.276 24.7976Z" fill="black"/>
<path d="M84.8617 35.2225V16.3826H79.7695V10.7976H84.8617V1.19141H91.2823V10.7976H102.279V16.3826H91.2823V34.3289C91.2823 38.2012 92.7584 40.2118 96.596 40.2118C98.441 40.2118 99.9908 39.8395 101.836 39.3182L102.648 45.2755C100.286 46.0202 98.441 46.467 95.2676 46.467C88.0351 46.467 84.8617 41.7011 84.8617 35.2225Z" fill="black"/>
<path d="M71.4844 45.5727V36.1898H71.4106C69.9345 43.2642 65.4328 46.4663 59.3812 46.4663C50.4512 46.4663 47.3516 40.509 47.3516 33.0623V10.7969H53.7723V31.424C53.7723 36.1898 55.8386 40.509 62.0379 40.509C67.942 40.509 71.4844 37.2324 71.4844 31.424V10.7969H77.9049V45.5727H71.4844Z" fill="black"/>
<path d="M22.583 46.467C8.56085 46.467 0 36.414 0 23.159C0 9.82957 8.85604 0 22.583 0C36.3837 0 45.1658 9.82957 45.1658 23.159C45.1658 36.414 36.605 46.467 22.583 46.467ZM22.583 40.2863C32.8411 40.2863 38.3762 33.063 38.3762 23.0846C38.3762 13.6273 32.6936 6.25518 22.583 6.25518C12.4723 6.25518 6.78964 13.6273 6.78964 23.0846C6.78964 33.063 12.3247 40.2863 22.583 40.2863Z" fill="black"/>
<path fill-rule="evenodd" clip-rule="evenodd" d="M155.793 11.2051C146.387 11.2051 138.762 18.8989 138.762 28.3896C138.762 37.8804 146.387 45.5742 155.793 45.5742C165.199 45.5742 172.823 37.8804 172.823 28.3896C172.823 18.8989 165.199 11.2051 155.793 11.2051ZM165.326 18.7699C167.855 21.3211 169.275 24.7815 169.275 28.3896H142.31C142.31 24.7815 143.73 21.3211 146.259 18.7699C148.787 16.2185 152.217 14.7852 155.793 14.7852C159.368 14.7852 162.799 16.2185 165.326 18.7699Z" fill="black"/>
</g>
<defs>
<clipPath id="clip0_1370_1350">
<rect width="265" height="46.467" fill="white"/>
</clipPath>
</defs>
</svg>
