<svg width="74" height="103" viewBox="0 0 74 103" fill="none" xmlns="http://www.w3.org/2000/svg">
<path d="M60.2716 20.02C61.8367 17.1949 64.8447 15.5282 66.5927 13.0283C68.4423 10.4064 67.4057 5.50805 62.1619 5.50805C58.7269 5.50805 57.04 8.10964 56.3286 10.2641L51.0645 8.04867C52.5075 3.71946 56.4302 0 62.1415 0C66.9179 0 70.1902 2.17477 71.8568 4.8983C73.2796 7.23567 74.1129 11.6055 71.9178 14.8575C69.4788 18.455 67.1415 19.5526 65.8813 21.8696C65.3732 22.8046 65.1699 23.4143 65.1699 26.4224H59.296C59.2757 24.837 59.0318 22.2558 60.2716 20.02ZM66.2268 34.5524C66.2268 36.7881 64.3976 38.6173 62.1619 38.6173C59.9261 38.6173 58.0969 36.7881 58.0969 34.5524C58.0969 32.3166 59.9261 30.4874 62.1619 30.4874C64.3976 30.4874 66.2268 32.3166 66.2268 34.5524Z" fill="#2E3421"/>
<path d="M28.9906 31.3766V38.5168M18.2804 67.0775L18.2804 99.2083M39.7009 67.0775L39.7009 99.2083M4 81.3579L18.2804 74.2177M39.7009 74.2177L53.9813 81.3579M18.2804 88.4981H39.7009M21.8505 52.7971V52.8328M36.1308 52.7971V52.8328M7.57009 45.657C7.57009 43.7633 8.32236 41.9471 9.6614 40.6081C11.0004 39.269 12.8166 38.5168 14.7103 38.5168H43.271C45.1647 38.5168 46.9808 39.269 48.3199 40.6081C49.6589 41.9471 50.4112 43.7633 50.4112 45.657V59.9373C50.4112 61.831 49.6589 63.6471 48.3199 64.9862C46.9808 66.3252 45.1647 67.0775 43.271 67.0775H14.7103C12.8166 67.0775 11.0004 66.3252 9.6614 64.9862C8.32236 63.6471 7.57009 61.831 7.57009 59.9373L7.57009 45.657Z" stroke="#2E3421" stroke-width="7.14018" stroke-linecap="round" stroke-linejoin="round"/>
</svg>
